<mxfile host="app.diagrams.net" modified="2022-10-09T11:22:22.730Z" agent="5.0 (Windows NT 10.0; Win64; x64) AppleWebKit/537.36 (KHTML, like Gecko) Chrome/106.0.0.0 Safari/537.36" etag="5fwU2gw7Tvdlchpn0ncU" version="20.4.0" type="github">
  <diagram id="RORE6Kx7WiwkyHq_FnW1" name="Page-1">
    <mxGraphModel dx="1762" dy="685" grid="1" gridSize="10" guides="1" tooltips="1" connect="1" arrows="1" fold="1" page="1" pageScale="1" pageWidth="827" pageHeight="1169" math="0" shadow="0">
      <root>
        <mxCell id="0" />
        <mxCell id="1" parent="0" />
        <mxCell id="szYCjnoqsOssxualBeOT-1" value="持续集成平台" style="rounded=0;whiteSpace=wrap;html=1;" vertex="1" parent="1">
          <mxGeometry x="90" y="50" width="690" height="60" as="geometry" />
        </mxCell>
        <mxCell id="szYCjnoqsOssxualBeOT-3" value="Endpoint入口配置模块" style="rounded=1;whiteSpace=wrap;html=1;" vertex="1" parent="1">
          <mxGeometry x="-250" y="200" width="160" height="40" as="geometry" />
        </mxCell>
        <mxCell id="szYCjnoqsOssxualBeOT-4" value="pipelineConfig配置模块" style="rounded=1;whiteSpace=wrap;html=1;" vertex="1" parent="1">
          <mxGeometry x="160" y="200" width="160" height="40" as="geometry" />
        </mxCell>
        <mxCell id="szYCjnoqsOssxualBeOT-6" value="触发器匹配模块" style="rounded=1;whiteSpace=wrap;html=1;" vertex="1" parent="1">
          <mxGeometry x="460" y="200" width="160" height="40" as="geometry" />
        </mxCell>
        <mxCell id="szYCjnoqsOssxualBeOT-7" value="流程编排模块" style="rounded=1;whiteSpace=wrap;html=1;" vertex="1" parent="1">
          <mxGeometry x="720" y="200" width="160" height="40" as="geometry" />
        </mxCell>
        <mxCell id="szYCjnoqsOssxualBeOT-8" value="阶段1&lt;br&gt;定义模块" style="rounded=1;whiteSpace=wrap;html=1;" vertex="1" parent="1">
          <mxGeometry x="20" y="290" width="90" height="30" as="geometry" />
        </mxCell>
        <mxCell id="szYCjnoqsOssxualBeOT-9" value="阶段2&lt;br&gt;定义模块" style="rounded=1;whiteSpace=wrap;html=1;" vertex="1" parent="1">
          <mxGeometry x="195" y="290" width="90" height="30" as="geometry" />
        </mxCell>
        <mxCell id="szYCjnoqsOssxualBeOT-10" value="阶段2&lt;br&gt;定义模块" style="rounded=1;whiteSpace=wrap;html=1;" vertex="1" parent="1">
          <mxGeometry x="369" y="290" width="90" height="30" as="geometry" />
        </mxCell>
        <mxCell id="szYCjnoqsOssxualBeOT-11" value="打&lt;br&gt;包&lt;br&gt;任&lt;br&gt;务&lt;br&gt;定&lt;br&gt;义" style="rounded=1;whiteSpace=wrap;html=1;fontSize=14;" vertex="1" parent="1">
          <mxGeometry x="10" y="360" width="30" height="190" as="geometry" />
        </mxCell>
        <mxCell id="szYCjnoqsOssxualBeOT-12" value="测&lt;br&gt;试&lt;br&gt;任&lt;br&gt;务&lt;br&gt;定&lt;br&gt;义" style="rounded=1;whiteSpace=wrap;html=1;fontSize=14;" vertex="1" parent="1">
          <mxGeometry x="90" y="360" width="30" height="190" as="geometry" />
        </mxCell>
        <mxCell id="szYCjnoqsOssxualBeOT-13" value="" style="endArrow=classic;html=1;rounded=0;fontSize=14;exitX=0.5;exitY=1;exitDx=0;exitDy=0;entryX=0.5;entryY=0;entryDx=0;entryDy=0;" edge="1" parent="1" source="szYCjnoqsOssxualBeOT-8" target="szYCjnoqsOssxualBeOT-12">
          <mxGeometry width="50" height="50" relative="1" as="geometry">
            <mxPoint x="60" y="380" as="sourcePoint" />
            <mxPoint x="110" y="330" as="targetPoint" />
            <Array as="points">
              <mxPoint x="65" y="340" />
              <mxPoint x="105" y="340" />
            </Array>
          </mxGeometry>
        </mxCell>
        <mxCell id="szYCjnoqsOssxualBeOT-14" value="" style="endArrow=classic;html=1;rounded=0;fontSize=14;entryX=0.5;entryY=0;entryDx=0;entryDy=0;exitX=0.5;exitY=1;exitDx=0;exitDy=0;" edge="1" parent="1" source="szYCjnoqsOssxualBeOT-8" target="szYCjnoqsOssxualBeOT-11">
          <mxGeometry width="50" height="50" relative="1" as="geometry">
            <mxPoint x="-20" y="330" as="sourcePoint" />
            <mxPoint y="330" as="targetPoint" />
            <Array as="points">
              <mxPoint x="65" y="340" />
              <mxPoint x="25" y="340" />
            </Array>
          </mxGeometry>
        </mxCell>
        <mxCell id="szYCjnoqsOssxualBeOT-15" value="手&lt;br&gt;工&lt;br&gt;测&lt;br&gt;试&lt;br&gt;任&lt;br&gt;务&lt;br&gt;定&lt;br&gt;义" style="rounded=1;whiteSpace=wrap;html=1;fontSize=14;" vertex="1" parent="1">
          <mxGeometry x="185" y="360" width="30" height="190" as="geometry" />
        </mxCell>
        <mxCell id="szYCjnoqsOssxualBeOT-16" value="部&lt;br&gt;署&lt;br&gt;包&lt;br&gt;任&lt;br&gt;务&lt;br&gt;定&lt;br&gt;义" style="rounded=1;whiteSpace=wrap;html=1;fontSize=14;" vertex="1" parent="1">
          <mxGeometry x="265" y="360" width="30" height="190" as="geometry" />
        </mxCell>
        <mxCell id="szYCjnoqsOssxualBeOT-17" value="" style="endArrow=classic;html=1;rounded=0;fontSize=14;entryX=0.5;entryY=0;entryDx=0;entryDy=0;exitX=0.5;exitY=1;exitDx=0;exitDy=0;" edge="1" parent="1" target="szYCjnoqsOssxualBeOT-15">
          <mxGeometry width="50" height="50" relative="1" as="geometry">
            <mxPoint x="240" y="320" as="sourcePoint" />
            <mxPoint x="175" y="330" as="targetPoint" />
            <Array as="points">
              <mxPoint x="240" y="340" />
              <mxPoint x="200" y="340" />
            </Array>
          </mxGeometry>
        </mxCell>
        <mxCell id="szYCjnoqsOssxualBeOT-18" value="" style="endArrow=classic;html=1;rounded=0;fontSize=14;exitX=0.5;exitY=1;exitDx=0;exitDy=0;entryX=0.5;entryY=0;entryDx=0;entryDy=0;" edge="1" parent="1">
          <mxGeometry width="50" height="50" relative="1" as="geometry">
            <mxPoint x="240" y="320" as="sourcePoint" />
            <mxPoint x="280" y="360" as="targetPoint" />
            <Array as="points">
              <mxPoint x="240" y="340" />
              <mxPoint x="280" y="340" />
            </Array>
          </mxGeometry>
        </mxCell>
        <mxCell id="szYCjnoqsOssxualBeOT-19" value="手&lt;br&gt;工&lt;br&gt;触&lt;br&gt;发&lt;br&gt;定&lt;br&gt;义" style="rounded=1;whiteSpace=wrap;html=1;fontSize=14;" vertex="1" parent="1">
          <mxGeometry x="339" y="360" width="30" height="190" as="geometry" />
        </mxCell>
        <mxCell id="szYCjnoqsOssxualBeOT-20" value="包&lt;br&gt;构&lt;br&gt;建&lt;br&gt;消&lt;br&gt;息&lt;br&gt;触&lt;br&gt;发&lt;br&gt;定&lt;br&gt;义" style="rounded=1;whiteSpace=wrap;html=1;fontSize=14;" vertex="1" parent="1">
          <mxGeometry x="459" y="360" width="30" height="190" as="geometry" />
        </mxCell>
        <mxCell id="szYCjnoqsOssxualBeOT-21" value="" style="endArrow=classic;html=1;rounded=0;fontSize=14;entryX=0.5;entryY=0;entryDx=0;entryDy=0;exitX=0.5;exitY=1;exitDx=0;exitDy=0;" edge="1" parent="1" target="szYCjnoqsOssxualBeOT-19">
          <mxGeometry width="50" height="50" relative="1" as="geometry">
            <mxPoint x="414" y="320" as="sourcePoint" />
            <mxPoint x="349" y="330" as="targetPoint" />
            <Array as="points">
              <mxPoint x="414" y="340" />
              <mxPoint x="354" y="340" />
            </Array>
          </mxGeometry>
        </mxCell>
        <mxCell id="szYCjnoqsOssxualBeOT-22" value="" style="endArrow=classic;html=1;rounded=0;fontSize=14;exitX=0.5;exitY=1;exitDx=0;exitDy=0;entryX=0.5;entryY=0;entryDx=0;entryDy=0;" edge="1" parent="1" target="szYCjnoqsOssxualBeOT-20">
          <mxGeometry width="50" height="50" relative="1" as="geometry">
            <mxPoint x="414" y="320" as="sourcePoint" />
            <mxPoint x="454" y="360" as="targetPoint" />
            <Array as="points">
              <mxPoint x="414" y="340" />
              <mxPoint x="474" y="340" />
            </Array>
          </mxGeometry>
        </mxCell>
        <mxCell id="szYCjnoqsOssxualBeOT-23" value="代&lt;br&gt;码&lt;br&gt;变&lt;br&gt;更&lt;br&gt;触&lt;br&gt;发&lt;br&gt;定&lt;br&gt;义" style="rounded=1;whiteSpace=wrap;html=1;fontSize=14;" vertex="1" parent="1">
          <mxGeometry x="399" y="360" width="30" height="190" as="geometry" />
        </mxCell>
        <mxCell id="szYCjnoqsOssxualBeOT-24" value="" style="endArrow=classic;html=1;rounded=0;fontSize=14;entryX=0.5;entryY=0;entryDx=0;entryDy=0;exitX=0.5;exitY=1;exitDx=0;exitDy=0;" edge="1" parent="1" source="szYCjnoqsOssxualBeOT-10" target="szYCjnoqsOssxualBeOT-23">
          <mxGeometry width="50" height="50" relative="1" as="geometry">
            <mxPoint x="414" y="340" as="sourcePoint" />
            <mxPoint x="560" y="320" as="targetPoint" />
          </mxGeometry>
        </mxCell>
        <mxCell id="szYCjnoqsOssxualBeOT-27" value="" style="endArrow=classic;html=1;rounded=0;fontSize=14;entryX=0.5;entryY=0;entryDx=0;entryDy=0;exitX=0.5;exitY=1;exitDx=0;exitDy=0;" edge="1" parent="1" target="szYCjnoqsOssxualBeOT-8">
          <mxGeometry width="50" height="50" relative="1" as="geometry">
            <mxPoint x="240" y="240" as="sourcePoint" />
            <mxPoint x="180" y="280" as="targetPoint" />
            <Array as="points">
              <mxPoint x="240" y="260" />
              <mxPoint x="180" y="260" />
              <mxPoint x="65" y="260" />
            </Array>
          </mxGeometry>
        </mxCell>
        <mxCell id="szYCjnoqsOssxualBeOT-28" value="" style="endArrow=classic;html=1;rounded=0;fontSize=14;exitX=0.5;exitY=1;exitDx=0;exitDy=0;entryX=0.5;entryY=0;entryDx=0;entryDy=0;" edge="1" parent="1" target="szYCjnoqsOssxualBeOT-10">
          <mxGeometry width="50" height="50" relative="1" as="geometry">
            <mxPoint x="240" y="240" as="sourcePoint" />
            <mxPoint x="300" y="280" as="targetPoint" />
            <Array as="points">
              <mxPoint x="240" y="260" />
              <mxPoint x="414" y="260" />
            </Array>
          </mxGeometry>
        </mxCell>
        <mxCell id="szYCjnoqsOssxualBeOT-29" value="" style="endArrow=classic;html=1;rounded=0;fontSize=14;entryX=0.5;entryY=0;entryDx=0;entryDy=0;exitX=0.5;exitY=1;exitDx=0;exitDy=0;" edge="1" parent="1" target="szYCjnoqsOssxualBeOT-9">
          <mxGeometry width="50" height="50" relative="1" as="geometry">
            <mxPoint x="240" y="240" as="sourcePoint" />
            <mxPoint x="240" y="280" as="targetPoint" />
          </mxGeometry>
        </mxCell>
      </root>
    </mxGraphModel>
  </diagram>
</mxfile>
